<svg xmlns="http://www.w3.org/2000/svg" width="24.8" height="24.8" viewBox="0 0 24.8 24.8"><defs><style>.a{fill:#fff;stroke:#fff;}</style></defs><g transform="translate(0.5 0.5)"><path class="a" d="M11.9,0A11.9,11.9,0,1,0,23.8,11.9,11.913,11.913,0,0,0,11.9,0Zm0,22.808A10.908,10.908,0,1,1,22.808,11.9,10.921,10.921,0,0,1,11.9,22.808Z"/><path class="a" d="M176.967,128.145a.5.5,0,0,0-.7,0l-5.454,5.454a.5.5,0,0,0,0,.7l5.454,5.454a.5.5,0,0,0,.7-.7l-5.1-5.1,5.1-5.1A.5.5,0,0,0,176.967,128.145Z" transform="translate(-162.733 -122.05)"/></g></svg>