<svg xmlns="http://www.w3.org/2000/svg" width="35.981" height="41.942" viewBox="0 0 35.981 41.942"><defs><style>.a{fill:#0083fe;}</style></defs><g transform="translate(-45.059 -6)"><g transform="translate(45.059 6)"><path class="a" d="M234.2,446.021h-4.274a.839.839,0,1,0,0,1.678H234.2a.839.839,0,0,0,0-1.678Z" transform="translate(-213.65 -409.11)"/><path class="a" d="M80.2,19.421a6.5,6.5,0,0,0-4.228,1.369c-.1.083-.2.174-.3.274V8.181A2.187,2.187,0,0,0,73.491,6H53.358a2.187,2.187,0,0,0-2.181,2.181v2.231l-.1-.1a3.523,3.523,0,1,0-4.983,4.983l3.63,3.63A3.525,3.525,0,0,0,48.214,24.8l2.065,2.065a3.523,3.523,0,0,0-2.065,5.988l1.394,1.394a3.523,3.523,0,0,0-2.065,5.988l3.634,3.635v1.9a2.183,2.183,0,0,0,2.181,2.181H69.464A.839.839,0,0,0,70.3,47.1V39.05a4.551,4.551,0,0,1,1.812-3.624l3.221-2.416a.848.848,0,0,0,.336-.671V25.629c0-3.341,2.039-4.273,3.691-4.479V47.1a.839.839,0,1,0,1.678,0V20.26A.839.839,0,0,0,80.2,19.421ZM53.358,7.678H73.491a.5.5,0,0,1,.5.5v2.513H52.855V8.181A.5.5,0,0,1,53.358,7.678ZM46.736,12.8a1.852,1.852,0,0,1,3.151-1.305l1.29,1.29v5.221l-3.9-3.9A1.833,1.833,0,0,1,46.736,12.8ZM49.4,21a1.854,1.854,0,0,1,2.61,0l3.8,3.8a1.846,1.846,0,0,1-2.61,2.61l-3.8-3.8A1.848,1.848,0,0,1,49.4,21Zm7.592,2.61-.912-.912a7.217,7.217,0,1,1,1.472,5.165,3.529,3.529,0,0,0-.56-4.253ZM49.4,29.053a1.854,1.854,0,0,1,2.61,0l3.8,3.8a1.846,1.846,0,0,1-2.61,2.61l-3.8-3.8a1.848,1.848,0,0,1,0-2.61Zm-.671,7.382a1.854,1.854,0,0,1,2.61,0l3.8,3.8a1.846,1.846,0,0,1-2.61,2.61l-3.8-3.8A1.848,1.848,0,0,1,48.729,36.434Zm4.126,9.327v-.839a3.521,3.521,0,0,0,4.483-3.687H68.625v5.029H53.358A.5.5,0,0,1,52.855,45.761ZM71.108,34.084a6.237,6.237,0,0,0-2.483,4.966v.507H56.745a3.521,3.521,0,0,0-.423-.513L54.928,37.65a3.523,3.523,0,0,0,2.065-5.988L54.928,29.6a3.485,3.485,0,0,0,1.451-.515,8.889,8.889,0,1,0-1.742-7.829s-1.663-1.648-1.782-1.74V12.371H73.994V31.92Z" transform="translate(-45.059 -6)"/><path class="a" d="M221.4,147.046h1.426a1.217,1.217,0,0,1,0,2.433H220.71a.478.478,0,0,1-.46-.558.839.839,0,0,0-1.678-.03l0,.087a2.14,2.14,0,0,0,2.14,2.178h.6v.5a.839.839,0,0,0,1.678,0v-.509a2.9,2.9,0,0,0-.168-5.783H221.4a1.174,1.174,0,1,1,0-2.349h2.081a.451.451,0,0,1,.461.482.839.839,0,0,0,1.676.072,2.14,2.14,0,0,0-2.137-2.232h-.487v-.5a.839.839,0,0,0-1.678,0v.505a2.851,2.851,0,1,0,.084,5.7Z" transform="translate(-203.956 -128.76)"/></g></g></svg>