<svg xmlns="http://www.w3.org/2000/svg" width="27.069" height="27.333" viewBox="0 0 27.069 27.333"><defs><style>.a{fill:#fff;}</style></defs><g transform="translate(-0.5 0)"><path class="a" d="M193.362,9.073a.8.8,0,0,0,.176.874l4.323,4.289a.8.8,0,0,0,1.128,0l4.323-4.289a.8.8,0,0,0-.564-1.369h-1.426V.8a.8.8,0,0,0-.8-.8h-4.289a.8.8,0,0,0-.8.8V8.577H194.1a.8.8,0,0,0-.74.5Zm0,0" transform="translate(-182.509)"/><path class="a" d="M26.922,5.186a2.656,2.656,0,0,0-2.034-.9H20.416V6.982a2.4,2.4,0,0,1,1.516,4.1l-4.323,4.289a2.4,2.4,0,0,1-3.383,0L9.9,11.083a2.4,2.4,0,0,1,1.421-4.093v-2.7H5.433l-.2-1.468C5.027,1.239,3.925,0,2.731,0H1.3a.8.8,0,0,0,0,1.6H2.731c.257,0,.8.543.919,1.431l.288,2.161s0,0,0,0l.853,6.4,1.151,8.63a3.24,3.24,0,0,0,1.1,2,3.308,3.308,0,0,0,1.537.764,2.946,2.946,0,1,0,5.209.058h4.2a2.945,2.945,0,1,0,5.239,0h2.1a.8.8,0,0,0,0-1.6H9.164A1.719,1.719,0,0,1,7.53,20.012l-.167-1.256H23.173a3.325,3.325,0,0,0,3.221-2.82l1.149-8.615a2.657,2.657,0,0,0-.621-2.135Zm0,0" transform="translate(0 0)"/></g></svg>