<svg xmlns="http://www.w3.org/2000/svg" width="27.691" height="27.691" viewBox="0 0 27.691 27.691"><defs><style>.a{fill:#0083fe;}</style></defs><path class="a" d="M24.987,2.38H22.409V1.623a1.623,1.623,0,0,0-3.245,0V2.38H10.078V1.623a1.623,1.623,0,0,0-3.245,0V2.4a.54.54,0,0,0-.144-.02H4.533a2.707,2.707,0,0,0-2.7,2.7V14.3a.541.541,0,1,0,1.082,0V7.95h19.5a.541.541,0,0,0,0-1.082H2.911V5.084A1.624,1.624,0,0,1,4.533,3.461H6.688a.542.542,0,0,0,.144-.02v.7a1.623,1.623,0,0,0,3.245,0V3.461h9.086v.676a1.623,1.623,0,0,0,3.245,0V3.461h2.578a1.624,1.624,0,0,1,1.623,1.623V25.635a.974.974,0,1,1-1.948,0v-1.4a.541.541,0,0,0-.541-.541H17.83a.541.541,0,1,0,0,1.082h5.75v.858a2.043,2.043,0,0,0,.246.974H2.055a.975.975,0,0,1-.974-.974v-.859H13.187a.541.541,0,1,0,0-1.082h-5.4A4.435,4.435,0,1,0,2,23.7H.541A.541.541,0,0,0,0,24.236v1.4a2.058,2.058,0,0,0,2.055,2.055h23.58a2.058,2.058,0,0,0,2.056-2.056V5.084A2.707,2.707,0,0,0,24.987,2.38ZM9,4.137a.541.541,0,0,1-1.082,0V1.623A.541.541,0,0,1,9,1.623Zm12.331,0a.541.541,0,1,1-1.082,0V1.623a.541.541,0,1,1,1.082,0ZM1.54,20.336a3.353,3.353,0,1,1,3.353,3.353A3.357,3.357,0,0,1,1.54,20.336Z"/><g transform="translate(24.37 6.866)"><path class="a" d="M452.173,127.16a.546.546,0,1,0,.16.386A.55.55,0,0,0,452.173,127.16Z" transform="translate(-451.24 -127)"/></g><g transform="translate(15.222 23.653)"><path class="a" d="M282.513,438.29a.547.547,0,1,0,.16.386A.549.549,0,0,0,282.513,438.29Z" transform="translate(-281.58 -438.13)"/></g><g transform="translate(10.162 16.411)"><path class="a" d="M190.322,304a2.077,2.077,0,1,0,2.077,2.077A2.079,2.079,0,0,0,190.322,304Zm0,3.061a.984.984,0,1,1,.984-.984A.985.985,0,0,1,190.322,307.061Z" transform="translate(-188.245 -304)"/></g><g transform="translate(15.201 16.411)"><path class="a" d="M283.655,304a2.077,2.077,0,1,0,2.077,2.077A2.079,2.079,0,0,0,283.655,304Zm0,3.061a.984.984,0,1,1,.984-.984A.985.985,0,0,1,283.655,307.061Z" transform="translate(-281.578 -304)"/></g><g transform="translate(20.198 16.411)"><path class="a" d="M376.989,304a2.077,2.077,0,1,0,2.077,2.077A2.079,2.079,0,0,0,376.989,304Zm0,3.061a.984.984,0,1,1,.984-.984A.985.985,0,0,1,376.989,307.061Z" transform="translate(-374.912 -304)"/></g><g transform="translate(5.124 10.797)"><path class="a" d="M96.989,200a2.077,2.077,0,1,0,2.077,2.077A2.079,2.079,0,0,0,96.989,200Zm0,3.061a.984.984,0,1,1,.984-.984A.985.985,0,0,1,96.989,203.061Z" transform="translate(-94.912 -200)"/></g><g transform="translate(15.201 10.797)"><path class="a" d="M283.655,200a2.077,2.077,0,1,0,2.077,2.077A2.079,2.079,0,0,0,283.655,200Zm0,3.061a.984.984,0,1,1,.984-.984A.985.985,0,0,1,283.655,203.061Z" transform="translate(-281.578 -200)"/></g><g transform="translate(20.198 10.797)"><path class="a" d="M376.989,200a2.077,2.077,0,1,0,2.077,2.077A2.079,2.079,0,0,0,376.989,200Zm0,3.061a.984.984,0,1,1,.984-.984A.985.985,0,0,1,376.989,203.061Z" transform="translate(-374.912 -200)"/></g><g transform="translate(10.162 10.797)"><path class="a" d="M190.322,200a2.077,2.077,0,1,0,2.077,2.077A2.079,2.079,0,0,0,190.322,200Zm0,3.061a.984.984,0,1,1,.984-.984A.985.985,0,0,1,190.322,203.061Z" transform="translate(-188.245 -200)"/></g><g transform="translate(2.798 18.833)"><path class="a" d="M55.289,348.86a.547.547,0,0,0-.773,0l-1.78,1.78-.608-.608a.547.547,0,1,0-.773.773l.995.995a.547.547,0,0,0,.773,0l2.167-2.167A.547.547,0,0,0,55.289,348.86Z" transform="translate(-51.194 -348.7)"/></g></svg>