<svg height="496pt" viewBox="0 0 496 496" width="496pt" xmlns="http://www.w3.org/2000/svg"><path d="m478.625 89.046875.894531-42.375c9.535157-3.175781 16.472657-12.078125 16.472657-22.671875 0-13.230469-10.769532-24-24-24-12.273438 0-22.3125 9.296875-23.71875 21.199219l-99.65625 22.730469c-4.175782-7.097657-11.808594-11.921876-20.625-11.921876-10.863282 0-19.960938 7.304688-22.902344 17.222657-16.410156-10.839844-36-17.222657-57.097656-17.222657-11.296876 0-22.097657 1.976563-32.265626 5.351563-1.34375-11.984375-11.40625-21.359375-23.734374-21.359375-9.113282 0-16.96875 5.167969-21.023438 12.671875l-59.425781-9.144531c-2.101563-11.09375-11.847657-19.527344-23.550781-19.527344-13.230469 0-24 10.769531-24 24 0 5.039062 1.574218 9.710938 4.238281 13.574219l-37.460938 51.523437c-2.160156-.640625-4.410156-1.089844-6.769531-1.089844-13.230469 0-24 10.769532-24 24 0 12.542969 9.710938 22.761719 21.992188 23.800782l28.519531 108.375c-6.34375 4.3125-10.519531 11.585937-10.519531 19.816406 0 7.96875 3.945312 14.992188 9.9375 19.359375-20.808594 19.015625-33.9375 46.296875-33.9375 76.640625 0 25.207031 9.023437 48.335938 24 66.359375v-16.253906c0-14.210938 9.542968-26.867188 23.207031-30.777344l32.792969-9.359375v-10.175781c-9.65625-7.3125-16-18.785157-16-31.792969v-16c0-22.054688 17.945312-40 40-40 22.054687 0 40 17.945312 40 40v16c0 13.015625-6.34375 24.488281-16 31.792969v10.175781l32.792968 9.359375c13.664063 3.910156 23.207032 16.566406 23.207032 30.777344v16.253906c2.503906-3.015625 4.808593-6.199219 6.953124-9.503906 4.253907 4.304687 10.117188 6.976562 16.605469 7.097656l9.738281 29.214844c-5.617187 4.40625-9.296874 11.167969-9.296874 18.832031 0 13.230469 10.769531 24 24 24 10.414062 0 19.214843-6.710938 22.527343-16h82.953125c3.3125 9.289062 12.113282 16 22.527344 16 13.230469 0 24-10.769531 24-24 0-3.734375-.929688-7.222656-2.457031-10.375 15.746093-3.351562 30.210937-10.210938 42.457031-19.816406v-31.703125c0-7.113281-4.777344-13.433594-11.601562-15.386719l-34.070313-9.734375-18.335937 18.328125-18.328126-18.328125-34.070312 9.734375c-6.824219 1.953125-11.601562 8.273438-11.601562 15.386719v31.703125c12.246093 9.605468 26.703124 16.480468 42.449218 19.839844-.371094.765624-.6875 1.550781-.976562 2.359374h-82.945313c-3.261719-9.160156-11.863281-15.769531-22.078125-15.953124l-9.738281-29.214844c5.609375-4.40625 9.289063-11.167969 9.289063-18.839844 0-13.230469-10.769532-24-24-24-.449219 0-.863282.105469-1.304688.128906.824219-5.257812 1.304688-10.632812 1.304688-16.128906 0-57.34375-46.65625-104-104-104-11.28125 0-22.121094 1.839844-32.28125 5.199219-.550782-4.679688-2.421876-8.910157-5.277344-12.375l48.78125-81.304688c1.546875.3125 3.144531.480469 4.777344.480469 4.472656 0 8.609374-1.304688 12.199218-3.449219 4.015625 14.007813 10.730469 26.882813 19.800782 37.800781v-16.246093c0-14.210938 9.542968-26.867188 23.207031-30.777344l32.792969-9.359375v-10.175781c-9.65625-7.3125-16-18.785157-16-31.792969v-16c0-22.054688 17.945312-40 40-40 22.054687 0 40 17.945312 40 40v16c0 13.015625-6.34375 24.488281-16 31.792969v10.175781l32.792968 9.359375c13.664063 3.910156 23.207032 16.566406 23.207032 30.777344v16.253906c14.976562-18.023437 24-41.152344 24-66.359375 0-21.097656-6.375-40.6875-17.222657-57.097656 4.453125-1.316406 8.335938-3.871094 11.300781-7.292969l101.992188 39.671875c-.007812.246094-.070312.472656-.070312.71875 0 2.640625.527343 5.128906 1.320312 7.503906l-36.417969 28.328125c-3.734375-2.390625-8.140625-3.824219-12.902343-3.824219-13.230469 0-24 10.769532-24 24 0 13.230469 10.769531 24 24 24 .734374 0 1.441406-.152343 2.160156-.214843l29.113281 63.0625c-3.570313 3.480469-6.007813 8.054687-6.875 13.183593-14.46875-7.648437-30.925781-12.023437-48.398437-12.023437-57.34375 0-104 46.65625-104 104 0 25.207031 9.023437 48.335937 24 66.359375v-16.269531c0-14.210938 9.542968-26.867188 23.207031-30.777344l32.792969-9.359375v-10.175781c-9.65625-7.3125-16-18.785157-16-31.792969v-16c0-22.054688 17.945312-40 40-40 22.054687 0 40 17.945312 40 40v16c0 13.015625-6.34375 24.488281-16 31.792969v10.175781l32.792968 9.359375c13.664063 3.910156 23.207032 16.566406 23.207032 30.777344v16.253906c14.976562-18.023437 24-41.152344 24-66.359375 0-24.878906-8.800782-47.734375-23.433594-65.648438 9-3.464843 15.433594-12.144531 15.433594-22.351562 0-13.230469-10.769532-24-24-24-.746094 0-1.441407.152344-2.160157.214844l-29.113281-63.0625c4.472656-4.351563 7.273438-10.425782 7.273438-17.152344 0-2.640625-.527344-5.128906-1.320313-7.503906l36.417969-28.320313c3.734375 2.398438 8.140625 3.832031 12.902344 3.832031 13.230468 0 24-10.769531 24-24 0-10.917968-7.367188-20.054687-17.367188-22.960937zm-102.632812 390.953125c-4.417969 0-8-3.585938-8-8s3.582031-8 8-8c4.414062 0 8 3.585938 8 8s-3.585938 8-8 8zm-120-8c0 4.414062-3.585938 8-8 8-4.417969 0-8-3.585938-8-8s3.582031-8 8-8c4.414062 0 8 3.59375 8 8zm-24-72c0 4.414062-3.585938 8-8 8-4.417969 0-8-3.585938-8-8s3.582031-8 8-8c4.414062 0 8 3.59375 8 8zm-40-368c4.414062 0 8 3.585938 8 8s-3.585938 8-8 8c-4.417969 0-8-3.585938-8-8s3.582031-8 8-8zm-128 224c4.414062 0 8 3.585938 8 8s-3.585938 8-8 8c-4.417969 0-8-3.585938-8-8s3.582031-8 8-8zm2.007812-15.792969-28.519531-108.375c2.34375-1.601562 4.359375-3.632812 6.007812-5.9375l68.65625 19.617188c.328125 5.183593 2.296875 9.886719 5.40625 13.671875l-48.78125 81.304687c-.898437-.183593-1.839843-.199219-2.769531-.28125zm50.496094-110.09375-68.65625-19.617187c-.28125-4.457032-1.695313-8.59375-4.085938-12.0625l37.46875-51.523438c2.160156.640625 4.402344 1.089844 6.769532 1.089844.320312 0 .625-.078125.945312-.097656l31.261719 78.167968c-1.375 1.21875-2.640625 2.546876-3.703125 4.042969zm-28.503906-114.113281c4.414062 0 8 3.585938 8 8s-3.585938 8-8 8c-4.417969 0-8-3.585938-8-8s3.582031-8 8-8zm-72 96c0-4.414062 3.582031-8 8-8 4.414062 0 8 3.585938 8 8s-3.585938 8-8 8c-4.417969 0-8-3.585938-8-8zm120 40c-4.417969 0-8-3.585938-8-8s3.582031-8 8-8c4.414062 0 8 3.585938 8 8s-3.585938 8-8 8zm9.230468-30.144531c-2.839844-1.191407-5.957031-1.855469-9.230468-1.855469-.320313 0-.625.078125-.945313.097656l-31.261719-78.167968c2.117188-1.875 3.878906-4.097657 5.230469-6.601563l59.425781 9.144531c1.160156 6.136719 4.679688 11.421875 9.558594 14.953125-17.480469 16-29.40625 37.832031-32.777344 62.429688zm310.769532 150.144531c0 4.414062-3.585938 8-8 8-4.417969 0-8-3.585938-8-8s3.582031-8 8-8c4.414062 0 8 3.59375 8 8zm16-256c4.414062 0 8 3.585938 8 8s-3.585938 8-8 8c-4.417969 0-8-3.585938-8-8s3.582031-8 8-8zm-144 48c-4.417969 0-8-3.585938-8-8s3.582031-8 8-8c4.414062 0 8 3.585938 8 8s-3.585938 8-8 8zm28.550781-5.480469 95.226562-21.710937c2.757813 4.34375 6.871094 7.710937 11.75 9.566406l-.917969 43.546875c-3.394531 1.445313-6.3125 3.71875-8.691406 6.46875zm35.449219 109.480469c0-4.414062 3.582031-8 8-8 4.414062 0 8 3.585938 8 8s-3.585938 8-8 8c-4.417969 0-8-3.585938-8-8zm80-48c-4.417969 0-8-3.585938-8-8s3.582031-8 8-8c4.414062 0 8 3.585938 8 8s-3.585938 8-8 8zm0 0"/><path d="m271.992188 104v-16c0-13.230469-10.769532-24-24-24-13.230469 0-24 10.769531-24 24v16c0 13.230469 10.769531 24 24 24 13.230468 0 24-10.761719 24-24zm0 0"/><path d="m183.992188 186.105469v31.703125c17.671874 13.855468 39.855468 22.199218 64 22.199218 24.144531 0 46.328124-8.34375 64-22.199218v-31.703125c0-7.113281-4.777344-13.433594-11.601563-15.386719l-34.070313-9.734375-18.328124 18.328125-18.328126-18.328125-34.070312 9.734375c-6.824219 1.953125-11.601562 8.273438-11.601562 15.386719zm0 0"/><path d="m239.992188 143.191406v5.496094l8 8 8-8v-5.496094c-2.585938.527344-5.265626.808594-8 .808594-2.734376 0-5.417969-.28125-8-.808594zm0 0"/><path d="m172.390625 394.71875-34.070313-9.734375-18.328124 18.328125-18.328126-18.328125-34.070312 9.734375c-6.824219 1.953125-11.601562 8.273438-11.601562 15.386719v31.703125c17.671874 13.855468 39.855468 22.199218 64 22.199218 24.144531 0 46.328124-8.34375 64-22.199218v-31.703125c0-7.113281-4.777344-13.433594-11.601563-15.386719zm0 0"/><path d="m143.992188 328v-16c0-13.230469-10.769532-24-24-24-13.230469 0-24 10.769531-24 24v16c0 13.230469 10.769531 24 24 24 13.230468 0 24-10.761719 24-24zm0 0"/><path d="m111.992188 367.191406v5.496094l8 8 8-8v-5.496094c-2.585938.527344-5.265626.808594-8 .808594-2.734376 0-5.417969-.28125-8-.808594zm0 0"/><path d="m399.992188 328v-16c0-13.230469-10.769532-24-24-24-13.230469 0-24 10.769531-24 24v16c0 13.230469 10.769531 24 24 24 13.230468 0 24-10.761719 24-24zm0 0"/><path d="m367.992188 367.191406v5.496094l8 8 8-8v-5.496094c-2.585938.527344-5.265626.808594-8 .808594-2.734376 0-5.417969-.28125-8-.808594zm0 0"/></svg>