<svg xmlns="http://www.w3.org/2000/svg" width="15.051" height="16.419" viewBox="0 0 15.051 16.419"><defs><style>.a{fill:#23ad44;}</style></defs><g transform="translate(0 0)"><path class="a" d="M5.986,116.588a2.911,2.911,0,0,1-2.908-2.908v-7.012h-1.2A1.883,1.883,0,0,0,0,108.549v9.236a1.883,1.883,0,0,0,1.881,1.881h8.552a1.883,1.883,0,0,0,1.881-1.881v-1.2Zm0,0" transform="translate(0 -103.247)"/><path class="a" d="M138.946,1.881A1.881,1.881,0,0,0,137.065,0h-7.184A1.881,1.881,0,0,0,128,1.881v8.551a1.881,1.881,0,0,0,1.881,1.881h7.184a1.881,1.881,0,0,0,1.881-1.881Zm0,0" transform="translate(-123.895 0)"/></g></svg>