<svg xmlns="http://www.w3.org/2000/svg" width="17.031" height="21.364" viewBox="0 0 17.031 21.364"><defs><style>.a{fill:#0083fe;}</style></defs><path class="a" d="M140.464,100.64l-1.511,1.73,2.448,2.79H130.129A2.3,2.3,0,0,0,128,107.6v3.655h2.129V107.6H141.4l-2.437,2.79,1.5,1.718,4.258-4.874a1.347,1.347,0,0,0,0-1.718Z" transform="translate(-128 -100.64)"/><path class="a" d="M142.666,265.308h-11.1l2.4-2.79-1.478-1.718-4.194,4.874a1.363,1.363,0,0,0,0,1.718l4.194,4.874,1.478-1.718-2.4-2.8h11.1a2.286,2.286,0,0,0,2.1-2.437v-3.655h-2.1Z" transform="translate(-127.86 -250.901)"/></svg>