<svg xmlns="http://www.w3.org/2000/svg" width="44" height="44" viewBox="0 0 44 44"><defs><style>.a,.b{fill:#23ad44;}.b{font-size:17px;font-family:Montserrat-Bold, Montserrat;font-weight:700;}</style></defs><g transform="translate(-867 -163)"><g transform="translate(867 163)"><path class="a" d="M3.467,25.333a1.376,1.376,0,0,1-1.375-1.348L2,19.4A1.377,1.377,0,0,1,3.375,18H7.958a1.375,1.375,0,0,1,0,2.75H4.778l.064,3.181a1.376,1.376,0,0,1-1.349,1.4H3.467Z" transform="translate(1.667 15)"/><path class="a" d="M23.958,9.333H19.375a1.375,1.375,0,1,1,0-2.75h3.208V3.375a1.375,1.375,0,1,1,2.75,0V7.958A1.376,1.376,0,0,1,23.958,9.333Z" transform="translate(15 1.667)"/><path class="a" d="M2.255,29.333a1.376,1.376,0,0,1-1.316-.979A22,22,0,0,1,22,0,21.75,21.75,0,0,1,39.195,8.316a1.375,1.375,0,1,1-2.16,1.7A19.014,19.014,0,0,0,22,2.75,19.249,19.249,0,0,0,3.571,27.562a1.375,1.375,0,0,1-.918,1.714A1.419,1.419,0,0,1,2.255,29.333Z"/><path class="a" d="M19.95,37.335A21.75,21.75,0,0,1,2.755,29.019a1.375,1.375,0,1,1,2.16-1.7A19.014,19.014,0,0,0,19.95,34.585,19.249,19.249,0,0,0,38.379,9.772a1.375,1.375,0,1,1,2.633-.794A22,22,0,0,1,19.95,37.335Z" transform="translate(2.05 6.665)"/></g><text class="b" transform="translate(877 191)"><tspan x="0" y="0">5N</tspan></text></g></svg>