<svg xmlns="http://www.w3.org/2000/svg" width="30.857" height="30.857" viewBox="0 0 30.857 30.857"><defs><style>.a,.b{fill:#b90505;}.b{font-size:11px;font-family:Montserrat-Bold, Montserrat;font-weight:700;}</style></defs><g transform="translate(-867 -163)"><g transform="translate(867 163)"><path class="a" d="M3.029,23.143a.965.965,0,0,1-.964-.945L2,18.984A.966.966,0,0,1,2.964,18H6.179a.964.964,0,1,1,0,1.929H3.948l.045,2.231a.965.965,0,0,1-.946.984H3.029Z" transform="translate(0.571 5.143)"/><path class="a" d="M22.179,7.143H18.964a.964.964,0,0,1,0-1.929h2.25V2.964a.964.964,0,1,1,1.929,0V6.179A.965.965,0,0,1,22.179,7.143Z" transform="translate(5.143 0.571)"/><path class="a" d="M1.581,20.571a.965.965,0,0,1-.923-.687A15.427,15.427,0,0,1,15.429,0,15.253,15.253,0,0,1,27.487,5.832a.964.964,0,1,1-1.515,1.193,13.334,13.334,0,0,0-10.544-5.1A13.5,13.5,0,0,0,2.5,19.329a.964.964,0,0,1-.644,1.2A1,1,0,0,1,1.581,20.571Z"/><path class="a" d="M14.726,28.572A15.253,15.253,0,0,1,2.667,22.74a.964.964,0,1,1,1.515-1.193,13.334,13.334,0,0,0,10.544,5.1A13.5,13.5,0,0,0,27.65,9.242.964.964,0,1,1,29.5,8.686a15.428,15.428,0,0,1-14.77,19.886Z" transform="translate(0.703 2.285)"/></g><text class="b" transform="translate(873.857 182)"><tspan x="0" y="0">4C</tspan></text></g></svg>