<svg xmlns="http://www.w3.org/2000/svg" width="154.29" height="148.82" viewBox="0 0 154.29 148.82"><defs><style>.a{opacity:0.44;}.b{fill:#e5e5e5;}</style></defs><g class="a" transform="translate(-1 -1.198)"><g transform="translate(5.977 140.064)"><path class="b" d="M3,66.954H147.336V57H3Z" transform="translate(-3 -57)"/></g><g transform="translate(20.908 5.682)"><path class="b" d="M53.15,74.272l4.487-2.158L44.455,46.846c-1.5.7-3.034,1.349-4.6,1.921Z" transform="translate(36.928 62.267)"/><path class="b" d="M17,72.115l4.487,2.158,13.3-25.505c-1.568-.572-3.1-1.219-4.6-1.921Z" transform="translate(2.908 62.267)"/><circle class="b" cx="4.977" cy="4.977" r="4.977" transform="translate(27.374 72.168)"/><circle class="b" cx="4.977" cy="4.977" r="4.977" transform="translate(52.26 52.26)"/><circle class="b" cx="4.977" cy="4.977" r="4.977" transform="translate(19.908 49.771)"/><circle class="b" cx="4.977" cy="4.977" r="4.977" transform="translate(84.611 44.794)"/><path class="b" d="M40.82,45.13a4.932,4.932,0,0,0,1.157-3.153A4.982,4.982,0,0,0,37,37" transform="translate(32.679 47.611)"/><path class="b" d="M35,40.408a4.98,4.98,0,0,0,4.109,4.89L35.62,38.054A4.9,4.9,0,0,0,35,40.408Z" transform="translate(29.702 49.18)"/><path class="b" d="M43.691,48.809a51.9,51.9,0,0,1-17.35-3.024l-2.195,4.562a57.006,57.006,0,0,0,19.545,3.439,57.006,57.006,0,0,0,19.545-3.439l-2.195-4.562A51.9,51.9,0,0,1,43.691,48.809Z" transform="translate(13.546 60.688)"/><path class="b" d="M123.473,60.237A57.237,57.237,0,1,0,42.09,112.113l2.177-4.524a52.261,52.261,0,1,1,43.935,0l2.177,4.524A57.3,57.3,0,0,0,123.473,60.237Z" transform="translate(-9 -3)"/><path class="b" d="M56.264,62.838,55.02,60.258a10.183,10.183,0,0,1-1.5.149,9.922,9.922,0,0,1-6.732-17.241l-5.711-11.86L25.9,62.838a46.546,46.546,0,0,0,30.365,0Z" transform="translate(16.155 39.135)"/><path class="b" d="M50.328,54.282A9.954,9.954,0,1,1,63.9,63.53l6.48,13.456A9.907,9.907,0,0,1,78.8,94.465l1.3,2.693a47.285,47.285,0,1,0-39.623,0L56.662,63.53A9.947,9.947,0,0,1,50.328,54.282Zm42.305-17.42a9.954,9.954,0,1,1-9.954,9.954A9.964,9.964,0,0,1,92.634,36.863Zm-2.489,22.4a9.954,9.954,0,1,1-9.954,9.954A9.964,9.964,0,0,1,90.145,59.26ZM17.977,51.794a9.954,9.954,0,1,1,9.954,9.954A9.964,9.964,0,0,1,17.977,51.794ZM35.4,84.145a9.954,9.954,0,1,1,9.954-9.954A9.964,9.964,0,0,1,35.4,84.145Z" transform="translate(-3.046 2.954)"/><circle class="b" cx="4.977" cy="4.977" r="4.977" transform="translate(82.122 67.191)"/></g><g transform="translate(121.443 1.198)"><path class="b" d="M83.246,62.919H78.269A71.622,71.622,0,0,0,49.4,5.18L52.388,1.2A76.562,76.562,0,0,1,83.246,62.919Z" transform="translate(-49.399 -1.198)"/></g><g transform="translate(1 1.2)"><path class="b" d="M5.977,62.918H1A76.566,76.566,0,0,1,31.856,1.2l2.989,3.979A71.627,71.627,0,0,0,5.977,62.918Z" transform="translate(-1 -1.199)"/></g></g></svg>