<svg xmlns="http://www.w3.org/2000/svg" width="35.5" height="35.5" viewBox="0 0 35.5 35.5"><defs><style>.a{fill:#fff;}</style></defs><path class="a" d="M30.287,5.213A17.73,17.73,0,1,0,5.213,30.287,17.73,17.73,0,1,0,30.287,5.213ZM17.75,33.42A15.67,15.67,0,1,1,33.42,17.75,15.688,15.688,0,0,1,17.75,33.42Z"/><path class="a" d="M74.521,61A13.521,13.521,0,1,0,88.041,74.521,13.536,13.536,0,0,0,74.521,61Zm0,24.961a11.44,11.44,0,1,1,11.44-11.44A11.453,11.453,0,0,1,74.521,85.961Z" transform="translate(-56.771 -56.771)"/><path class="a" d="M189.32,127.087a1.04,1.04,0,1,0,2.08,0,3.836,3.836,0,0,0-1.635-3.038,5.716,5.716,0,0,0-2.526-1.039v-1.123a1.04,1.04,0,1,0-2.08,0v1.123a5.715,5.715,0,0,0-2.526,1.039,3.641,3.641,0,0,0,0,6.077,5.716,5.716,0,0,0,2.526,1.039v4.119c-1.2-.293-2.08-1.07-2.08-1.956a1.04,1.04,0,0,0-2.08,0,3.836,3.836,0,0,0,1.635,3.038,5.716,5.716,0,0,0,2.526,1.039v1.134a1.04,1.04,0,0,0,2.08,0V137.4a5.715,5.715,0,0,0,2.526-1.039,3.641,3.641,0,0,0,0-6.077,5.716,5.716,0,0,0-2.526-1.039v-4.119C188.438,125.424,189.32,126.2,189.32,127.087Zm-6.24,0c0-.886.882-1.663,2.08-1.956v3.912C183.962,128.751,183.08,127.973,183.08,127.087Zm6.24,6.24c0,.886-.882,1.663-2.08,1.956v-3.912C188.438,131.664,189.32,132.442,189.32,133.328Z" transform="translate(-168.45 -112.468)"/></svg>