<svg xmlns="http://www.w3.org/2000/svg" width="29.691" height="29.981" viewBox="0 0 29.691 29.981"><defs><style>.a{fill:#0083fe;}</style></defs><path class="a" d="M28.981,5.689A2.914,2.914,0,0,0,26.75,4.7H5.411L5.2,3.094C4.964,1.359,3.757,0,2.446,0H.878a.878.878,0,0,0,0,1.757H2.446c.282,0,.879.6,1.008,1.569L5.969,22.183a3.552,3.552,0,0,0,1.2,2.191,3.63,3.63,0,0,0,1.686.839,3.231,3.231,0,1,0,5.714.064h4.6a3.23,3.23,0,1,0,5.746,0h2.3a.878.878,0,0,0,0-1.757H9.5A1.885,1.885,0,0,1,7.71,21.951l-.184-1.378H24.869A3.646,3.646,0,0,0,28.4,17.479l1.26-9.449a2.914,2.914,0,0,0-.681-2.341ZM13.171,26.75A1.474,1.474,0,1,1,11.7,25.277,1.475,1.475,0,0,1,13.171,26.75Zm10.349,0a1.474,1.474,0,1,1-1.474-1.474A1.475,1.475,0,0,1,23.52,26.75Zm4.139-19.9a1.181,1.181,0,0,1,.261.952l-.528,3.962H21.416l.353-5.3H26.75a1.181,1.181,0,0,1,.909.385ZM15.186,18.816l-.353-5.3h4.706l-.353,5.3Zm-.471-7.056-.353-5.3h5.647l-.353,5.3ZM12.6,6.461l.353,5.3h-6.6l-.707-5.3ZM6.585,13.517h6.486l.353,5.3H7.292Zm18.283,5.3H20.946l.353-5.3h5.859l-.5,3.73a1.885,1.885,0,0,1-1.792,1.569Zm0,0" transform="translate(0)"/></svg>