<svg height="448pt" viewBox="0 -4 448 448" width="448pt" xmlns="http://www.w3.org/2000/svg"><path d="m248 24c0 13.253906-10.746094 24-24 24s-24-10.746094-24-24 10.746094-24 24-24 24 10.746094 24 24zm0 0"/><path d="m240 72h-32c-22.082031.027344-39.972656 17.917969-40 40v27.054688l2.335938 1.160156c33.800781 16.816406 73.527343 16.816406 107.328124 0l2.335938-1.160156v-27.054688c-.027344-22.082031-17.917969-39.972656-40-40zm0 0"/><path d="m248 312c0 13.253906-10.746094 24-24 24s-24-10.746094-24-24 10.746094-24 24-24 24 10.746094 24 24zm0 0"/><path d="m240 360h-32c-22.082031.027344-39.972656 17.917969-40 40v27.054688l2.335938 1.160156c33.800781 16.816406 73.527343 16.816406 107.328124 0l2.335938-1.160156v-27.054688c-.027344-22.082031-17.917969-39.972656-40-40zm0 0"/><path d="m416 312c0 13.253906-10.746094 24-24 24s-24-10.746094-24-24 10.746094-24 24-24 24 10.746094 24 24zm0 0"/><path d="m408 360h-32c-22.082031.027344-39.972656 17.917969-40 40v27.054688l2.335938 1.160156c33.800781 16.816406 73.527343 16.816406 107.328124 0l2.335938-1.160156v-27.054688c-.027344-22.082031-17.917969-39.972656-40-40zm0 0"/><path d="m80 312c0 13.253906-10.746094 24-24 24s-24-10.746094-24-24 10.746094-24 24-24 24 10.746094 24 24zm0 0"/><path d="m72 360h-32c-22.082031.027344-39.9726562 17.917969-40 40v27.054688l2.335938 1.160156c33.800781 16.816406 73.527343 16.816406 107.328124 0l2.335938-1.160156v-27.054688c-.027344-22.082031-17.917969-39.972656-40-40zm0 0"/><path d="m232 208v-24h-16v24h-168v40h16v-24h152v24h16v-24h152v24h16v-40zm0 0"/></svg>