<svg xmlns="http://www.w3.org/2000/svg" width="35.626" height="35.626" viewBox="0 0 35.626 35.626"><defs><style>.a{fill:#fff;}</style></defs><path class="a" d="M17.813,0A17.813,17.813,0,1,0,35.626,17.813,17.833,17.833,0,0,0,17.813,0Zm0,32.84A15.027,15.027,0,1,1,32.84,17.813,15.044,15.044,0,0,1,17.813,32.84Z"/><path class="a" d="M36.159,51.316l3.2-1.993a.719.719,0,0,0-.218-1.311l-1.228-.284a7.434,7.434,0,0,1,13.8-.025,1.393,1.393,0,0,0,2.584-1.041,10.22,10.22,0,0,0-19.123.431l-1.224-.284a.719.719,0,0,0-.773,1.082l1.993,3.2A.719.719,0,0,0,36.159,51.316Z" transform="translate(-26.922 -32.782)"/><path class="a" d="M66.361,97.757l-1.932-3.233a.72.72,0,0,0-.987-.248l-3.233,1.932a.719.719,0,0,0,.194,1.315l1.235.311a7.438,7.438,0,0,1-13.547-.319,1.393,1.393,0,0,0-2.564,1.09,10.234,10.234,0,0,0,9.223,6.224l.19,0a10.177,10.177,0,0,0,9.439-6.306l1.189.3A.72.72,0,0,0,66.361,97.757Z" transform="translate(-36.98 -76.682)"/></svg>