<svg xmlns="http://www.w3.org/2000/svg" width="13.905" height="16.667" viewBox="0 0 13.905 16.667"><defs><style>.a{fill:#fff;}</style></defs><g transform="translate(0 0)"><path class="a" d="M91.046,8.029a3.884,3.884,0,0,0,2.838-1.176A3.884,3.884,0,0,0,95.06,4.014a3.885,3.885,0,0,0-1.176-2.838,4.013,4.013,0,0,0-5.677,0,3.884,3.884,0,0,0-1.176,2.838,3.884,3.884,0,0,0,1.176,2.838A3.886,3.886,0,0,0,91.046,8.029ZM88.9,1.867a3.037,3.037,0,0,1,4.3,0,2.9,2.9,0,0,1,.89,2.148,2.9,2.9,0,0,1-.89,2.148,3.036,3.036,0,0,1-4.3,0,2.9,2.9,0,0,1-.89-2.148,2.9,2.9,0,0,1,.89-2.148Zm0,0" transform="translate(-84.199 0)"/><path class="a" d="M13.871,252.081a9.915,9.915,0,0,0-.135-1.053,8.3,8.3,0,0,0-.259-1.059,5.23,5.23,0,0,0-.435-.988,3.723,3.723,0,0,0-.656-.855,2.894,2.894,0,0,0-.943-.592,3.259,3.259,0,0,0-1.2-.218,1.221,1.221,0,0,0-.652.277c-.2.128-.424.275-.68.438a3.9,3.9,0,0,1-.879.387,3.415,3.415,0,0,1-2.151,0A3.884,3.884,0,0,1,5,248.031c-.253-.162-.482-.309-.68-.438a1.22,1.22,0,0,0-.652-.277,3.255,3.255,0,0,0-1.2.218,2.892,2.892,0,0,0-.943.592,3.724,3.724,0,0,0-.656.855,5.241,5.241,0,0,0-.435.988,8.317,8.317,0,0,0-.259,1.059,9.848,9.848,0,0,0-.135,1.053c-.022.318-.033.65-.033.984a2.768,2.768,0,0,0,.822,2.094,2.959,2.959,0,0,0,2.118.772h8.025a2.959,2.959,0,0,0,2.118-.772,2.767,2.767,0,0,0,.822-2.094c0-.336-.011-.667-.034-.984Zm-1.462,2.371a1.992,1.992,0,0,1-1.445.5H2.94a1.992,1.992,0,0,1-1.445-.5,1.807,1.807,0,0,1-.519-1.386c0-.312.01-.621.031-.917a8.882,8.882,0,0,1,.122-.948,7.336,7.336,0,0,1,.228-.933,4.266,4.266,0,0,1,.354-.8,2.76,2.76,0,0,1,.482-.632,1.92,1.92,0,0,1,.627-.39,2.248,2.248,0,0,1,.769-.148c.034.018.1.053.194.117.2.131.432.28.688.444a4.839,4.839,0,0,0,1.1.493,4.39,4.39,0,0,0,2.752,0,4.843,4.843,0,0,0,1.1-.494c.262-.167.487-.312.688-.443.1-.064.16-.1.194-.117a2.249,2.249,0,0,1,.769.148,1.922,1.922,0,0,1,.627.39,2.752,2.752,0,0,1,.482.632,4.252,4.252,0,0,1,.354.8,7.319,7.319,0,0,1,.228.933,8.958,8.958,0,0,1,.122.949h0c.021.295.031.6.031.916a1.807,1.807,0,0,1-.519,1.386Zm0,0" transform="translate(0 -239.265)"/></g></svg>