<svg xmlns="http://www.w3.org/2000/svg" width="25.863" height="31" viewBox="0 0 25.863 31"><defs><style>.a{fill:#2076bd;}</style></defs><g transform="translate(0 0)"><path class="a" d="M94.5,14.933a7.225,7.225,0,0,0,5.279-2.187,7.225,7.225,0,0,0,2.187-5.279,7.225,7.225,0,0,0-2.187-5.279,7.465,7.465,0,0,0-10.558,0,7.225,7.225,0,0,0-2.187,5.279,7.225,7.225,0,0,0,2.188,5.279A7.227,7.227,0,0,0,94.5,14.933ZM90.5,3.472a5.648,5.648,0,0,1,7.989,0,5.4,5.4,0,0,1,1.655,3.994,5.4,5.4,0,0,1-1.655,3.995,5.647,5.647,0,0,1-7.989,0,5.4,5.4,0,0,1-1.656-3.995A5.4,5.4,0,0,1,90.5,3.472Zm0,0" transform="translate(-81.762 0)"/><path class="a" d="M25.8,256.18a18.441,18.441,0,0,0-.251-1.959,15.431,15.431,0,0,0-.482-1.969,9.728,9.728,0,0,0-.81-1.837,6.924,6.924,0,0,0-1.221-1.591,5.383,5.383,0,0,0-1.754-1.1,6.062,6.062,0,0,0-2.239-.405,2.272,2.272,0,0,0-1.214.515c-.364.237-.789.512-1.264.815a7.246,7.246,0,0,1-1.636.721,6.352,6.352,0,0,1-4,0,7.222,7.222,0,0,1-1.635-.72c-.47-.3-.9-.575-1.265-.815a2.27,2.27,0,0,0-1.213-.515,6.053,6.053,0,0,0-2.239.406,5.377,5.377,0,0,0-1.754,1.1,6.925,6.925,0,0,0-1.22,1.591,9.747,9.747,0,0,0-.81,1.837,15.47,15.47,0,0,0-.482,1.969,18.318,18.318,0,0,0-.251,1.96c-.041.592-.062,1.208-.062,1.831a5.148,5.148,0,0,0,1.529,3.894,5.5,5.5,0,0,0,3.94,1.437H20.395a5.5,5.5,0,0,0,3.939-1.437,5.146,5.146,0,0,0,1.529-3.895c0-.625-.021-1.241-.063-1.831Zm-2.719,4.41a3.705,3.705,0,0,1-2.687.936H5.468a3.705,3.705,0,0,1-2.687-.936,3.361,3.361,0,0,1-.965-2.578c0-.581.019-1.154.057-1.7a16.521,16.521,0,0,1,.227-1.764,13.644,13.644,0,0,1,.424-1.736,7.934,7.934,0,0,1,.659-1.494,5.133,5.133,0,0,1,.9-1.176,3.571,3.571,0,0,1,1.167-.725,4.18,4.18,0,0,1,1.431-.276c.064.034.177.1.36.218.373.243.8.521,1.28.825a9,9,0,0,0,2.053.917,8.166,8.166,0,0,0,5.119,0,9.011,9.011,0,0,0,2.054-.918c.487-.311.905-.581,1.279-.824.184-.119.3-.184.36-.218a4.183,4.183,0,0,1,1.431.276,3.576,3.576,0,0,1,1.166.725,5.12,5.12,0,0,1,.9,1.176,7.908,7.908,0,0,1,.659,1.493,13.611,13.611,0,0,1,.424,1.736,16.661,16.661,0,0,1,.227,1.765h0c.039.548.058,1.122.058,1.7a3.361,3.361,0,0,1-.965,2.578Zm0,0" transform="translate(0 -232.342)"/></g></svg>