<svg xmlns="http://www.w3.org/2000/svg" width="44.998" height="44.998" viewBox="0 0 44.998 44.998"><defs><style>.a{fill:#fff;}</style></defs><g transform="translate(-0.002)"><g transform="translate(0.002)"><path class="a" d="M44.121,183.326H19.814l1.935-3.351a.879.879,0,0,0-.322-1.2l-6.044-3.49a.879.879,0,0,0-1.2.322L9.6,183.536a3.031,3.031,0,0,0-5.4,2.544l-.014,0a3.032,3.032,0,0,0,.513,5.949L.12,199.962a.879.879,0,0,0,.322,1.2l6.044,3.49a.878.878,0,0,0,1.2-.322L17.228,187.8v16.086a.879.879,0,0,0,.879.879H44.121a.879.879,0,0,0,.879-.879V184.2a.879.879,0,0,0-.879-.879Zm-28.856-6.079,4.522,2.611-5.1,8.829-4.522-2.611ZM12.58,192.34l-4.522-2.611,1.23-2.131,4.522,2.611Zm-6.56-7.694a1.274,1.274,0,0,1,2.207,1.274l-.637,1.1-1.1-.637A1.276,1.276,0,0,1,6.02,184.645Zm.054,5a1.275,1.275,0,1,1-.466-1.741l1.1.637Zm.53,13.042L2.081,200.08l5.1-8.829,4.522,2.611Zm12.382-17.607h9.14v17.929h-9.14Zm24.257,17.929H34.1v-4.768a.879.879,0,0,0-1.758,0v4.768H29.883V185.084h2.461v5.251a.879.879,0,1,0,1.758,0v-5.251h9.14Z" transform="translate(-0.002 -159.772)"/><path class="a" d="M344.881,119.086a.879.879,0,0,0,.879-.879v-9.5a.879.879,0,1,0-1.758,0v9.5A.879.879,0,0,0,344.881,119.086Z" transform="translate(-313.769 -98.35)"/><path class="a" d="M405.575,119.086a.879.879,0,0,0,.879-.879,12.476,12.476,0,0,1,3.678-8.88.879.879,0,0,0-1.243-1.243,14.223,14.223,0,0,0-4.193,10.123A.879.879,0,0,0,405.575,119.086Z" transform="translate(-369.129 -98.35)"/><path class="a" d="M242.46,118.207a.879.879,0,1,0,1.758,0,14.223,14.223,0,0,0-4.193-10.123.879.879,0,1,0-1.243,1.243A12.477,12.477,0,0,1,242.46,118.207Z" transform="translate(-217.562 -98.35)"/><path class="a" d="M391.547,2.93a.879.879,0,0,0,.879-.879V.879a.879.879,0,0,0-1.758,0V2.051A.879.879,0,0,0,391.547,2.93Z" transform="translate(-356.334)"/><path class="a" d="M391.547,69.6a.879.879,0,0,0,.879-.879V67.545a.879.879,0,0,0-1.758,0v1.172A.879.879,0,0,0,391.547,69.6Z" transform="translate(-356.334 -60.807)"/><path class="a" d="M418.214,41.758h1.172a.879.879,0,0,0,0-1.758h-1.172a.879.879,0,0,0,0,1.758Z" transform="translate(-380.657 -36.485)"/><path class="a" d="M351.547,41.758h1.172a.879.879,0,0,0,0-1.758h-1.172a.879.879,0,1,0,0,1.758Z" transform="translate(-319.849 -36.485)"/><path class="a" d="M166.556,38.671a2.812,2.812,0,1,0-2.812-2.812A2.816,2.816,0,0,0,166.556,38.671Zm0-3.867a1.055,1.055,0,1,1-1.055,1.055A1.056,1.056,0,0,1,166.556,34.8Z" transform="translate(-149.353 -30.142)"/><path class="a" d="M284.191,46.089a.878.878,0,1,0-.622-.258A.882.882,0,0,0,284.191,46.089Z" transform="translate(-258.413 -40.435)"/><path class="a" d="M467.9,184.111a.878.878,0,1,0-.258-.621A.886.886,0,0,0,467.9,184.111Z" transform="translate(-426.543 -166.562)"/><path class="a" d="M492.881,68.429a.879.879,0,1,0-.621-.258A.886.886,0,0,0,492.881,68.429Z" transform="translate(-448.762 -60.812)"/><path class="a" d="M368.881,382.751a.879.879,0,1,0,.621.258A.882.882,0,0,0,368.881,382.751Z" transform="translate(-335.66 -349.113)"/></g></g></svg>